<?xml version="1.0" standalone="no"?>
<!DOCTYPE svg PUBLIC "-//W3C//DTD SVG 20010904//EN"
 "http://www.w3.org/TR/2001/REC-SVG-20010904/DTD/svg10.dtd">
<svg version="1.0" xmlns="http://www.w3.org/2000/svg"
 width="730.000000pt" height="730.000000pt" viewBox="0 0 730.000000 730.000000"
 preserveAspectRatio="xMidYMid meet">
<metadata>
Created by potrace 1.11, written by Peter Selinger 2001-2013
</metadata>
<g transform="translate(0.000000,730.000000) scale(0.100000,-0.100000)"
fill="#000000" stroke="none">
<path d="M3290 6921 c0 -6 59 -118 130 -249 l130 -240 0 -111 0 -111 55 0 55
0 0 104 c0 102 1 107 38 178 45 86 115 216 147 273 70 126 84 153 78 159 -4 3
-32 6 -63 6 l-57 0 -94 -175 c-52 -96 -98 -173 -103 -172 -9 3 -55 83 -150
260 l-47 87 -60 0 c-32 0 -59 -4 -59 -9z"/>
<path d="M260 6673 c-104 -40 -121 -171 -32 -238 23 -17 43 -20 127 -20 l100
0 3 49 c2 27 1 60 -3 73 -5 23 -9 24 -73 21 -61 -3 -67 -5 -70 -25 -3 -21 1
-23 42 -23 42 0 46 -2 46 -25 0 -24 -3 -25 -61 -25 -54 0 -64 3 -90 29 -38 38
-38 74 0 112 28 27 34 29 114 29 68 0 86 3 91 16 3 9 4 20 0 25 -6 10 -169 11
-194 2z"/>
<path d="M528 6668 c-29 -22 -38 -64 -31 -143 9 -111 8 -110 160 -110 121 0
128 1 128 20 0 19 -8 20 -115 25 l-115 5 -3 33 -3 32 90 0 c90 0 91 0 91 25 0
25 -1 25 -91 25 -88 0 -90 1 -87 23 3 21 8 22 118 27 107 5 115 6 115 25 0 19
-8 20 -120 23 -86 2 -125 -1 -137 -10z"/>
<path d="M1067 6674 c-4 -4 -7 -40 -7 -81 0 -40 -2 -73 -5 -73 -3 0 -52 34
-108 75 -57 41 -107 75 -110 75 -4 0 -7 -58 -7 -130 l0 -130 25 0 c25 0 25 1
25 81 0 66 3 80 14 76 8 -3 58 -38 111 -77 60 -44 101 -68 106 -63 6 6 8 63 7
129 -3 111 -4 119 -23 122 -12 2 -24 0 -28 -4z"/>
<path d="M1180 6660 c-19 -19 -24 -54 -22 -155 2 -83 25 -95 178 -95 104 0
104 0 104 25 0 24 0 24 -112 27 l-113 3 -3 32 -3 32 88 3 c82 3 88 4 91 25 3
21 0 22 -85 25 -80 3 -88 5 -88 23 0 19 8 20 112 23 90 2 112 6 117 18 3 9 4
20 0 25 -3 5 -59 9 -125 9 -106 0 -121 -2 -139 -20z"/>
<path d="M1490 6545 c0 -136 0 -136 23 -133 19 3 22 10 25 61 l3 58 42 -3 c39
-3 44 -6 76 -60 26 -45 39 -58 57 -58 13 0 24 2 24 5 0 2 -12 29 -27 59 l-27
55 33 30 c27 26 32 36 26 59 -12 51 -27 57 -145 60 l-110 4 0 -137z m197 69
c9 -25 -16 -34 -82 -32 -54 3 -60 5 -63 26 -3 21 0 22 68 22 56 0 72 -3 77
-16z"/>
<path d="M2012 6658 c3 -20 9 -23 61 -26 l57 -3 0 -110 c0 -109 0 -110 23
-107 21 3 22 8 25 110 l3 107 57 3 c49 3 57 6 57 23 0 19 -8 20 -143 23 l-143
3 3 -23z"/>
<path d="M2344 6667 c-2 -7 -3 -67 -2 -133 3 -115 4 -119 26 -122 22 -3 22 -3
22 132 0 130 -1 136 -20 136 -11 0 -23 -6 -26 -13z"/>
<path d="M2501 6662 c-50 -25 -74 -63 -74 -116 0 -55 21 -90 73 -116 50 -25
83 -25 136 0 99 48 99 186 1 231 -53 23 -92 24 -136 1z m112 -43 c52 -24 60
-87 18 -130 -59 -58 -151 -24 -151 56 0 67 67 104 133 74z"/>
<path d="M2987 6674 c-4 -4 -7 -40 -7 -81 0 -40 -4 -73 -9 -73 -5 0 -55 34
-111 75 -56 41 -107 75 -112 75 -5 0 -7 -56 -6 -127 3 -124 4 -128 26 -131 21
-3 22 -1 22 78 0 70 2 81 15 76 9 -3 60 -37 114 -76 54 -38 101 -70 105 -70 4
0 5 57 4 127 -3 106 -6 128 -18 131 -9 1 -19 0 -23 -4z"/>
<path d="M4100 6545 l0 -135 25 0 c24 0 25 3 25 59 0 70 1 71 109 71 92 0 121
15 121 63 0 64 -28 77 -169 77 l-111 0 0 -135z m224 70 c8 -22 -25 -35 -91
-35 -65 0 -89 10 -80 34 9 23 162 24 171 1z"/>
<path d="M4432 6548 l3 -133 25 0 c23 0 25 4 28 58 l3 57 38 0 c45 0 60 -11
95 -68 29 -46 46 -58 72 -48 13 5 11 14 -15 59 l-30 53 35 30 c38 35 43 61 15
95 -18 23 -27 24 -145 27 l-127 4 3 -134z m225 66 c9 -25 -16 -34 -94 -34 -71
0 -73 1 -73 25 0 25 1 25 80 25 65 0 82 -3 87 -16z"/>
<path d="M4831 6663 c-62 -31 -89 -112 -59 -178 18 -40 74 -69 133 -69 83 0
138 52 138 130 0 101 -115 165 -212 117z m118 -48 c67 -34 51 -132 -24 -151
-53 -13 -115 26 -115 72 0 76 70 115 139 79z"/>
<path d="M5092 6548 l3 -133 97 0 c82 0 101 3 125 21 64 47 80 139 31 191 -40
43 -71 53 -168 53 l-91 0 3 -132z m204 58 c21 -18 28 -32 28 -61 0 -59 -37
-85 -120 -85 l-64 0 0 85 0 85 64 0 c54 0 70 -4 92 -24z"/>
<path d="M5420 6600 c0 -91 15 -133 56 -164 37 -27 92 -30 134 -9 59 31 74 76
71 216 -1 30 -5 37 -21 37 -18 0 -20 -7 -20 -72 0 -40 -6 -84 -13 -98 -26 -51
-83 -62 -132 -26 -17 12 -21 29 -25 103 -5 82 -7 88 -27 91 -22 3 -23 1 -23
-78z"/>
<path d="M5785 6660 c-80 -39 -100 -130 -44 -194 37 -43 79 -56 182 -56 75 0
77 1 77 24 0 24 -2 24 -96 28 -91 3 -97 5 -120 31 -27 31 -30 54 -13 91 17 36
57 46 189 46 98 0 119 -3 124 -16 3 -9 6 -58 6 -111 0 -92 1 -94 23 -91 21 3
22 8 25 110 l3 107 57 3 c49 3 57 6 57 23 0 19 -8 20 -215 23 -198 2 -218 1
-255 -18z"/>
<path d="M6305 6668 c-3 -8 -4 -68 -3 -134 3 -118 3 -119 27 -119 l23 0 0 130
c-1 124 -2 130 -21 133 -12 2 -23 -3 -26 -10z"/>
<path d="M6453 6660 c-88 -53 -84 -186 7 -233 69 -34 177 -2 201 60 37 97 -28
193 -131 193 -27 0 -58 -8 -77 -20z m120 -42 c55 -29 63 -84 18 -129 -37 -37
-79 -38 -120 -3 -79 66 10 181 102 132z"/>
<path d="M6950 6606 c0 -41 -4 -77 -9 -80 -4 -3 -55 28 -112 69 -57 41 -107
75 -111 75 -5 0 -8 -58 -8 -130 l0 -130 25 0 c25 0 25 1 25 81 0 63 3 80 13
76 7 -3 57 -37 111 -76 54 -39 102 -71 107 -71 5 0 9 59 9 130 l0 130 -25 0
c-24 0 -25 -2 -25 -74z"/>
<path d="M1893 6633 c-82 -151 -113 -209 -113 -216 0 -5 12 -7 27 -5 22 2 34
16 64 73 21 39 43 70 49 70 6 0 28 -31 49 -70 30 -57 42 -71 64 -73 15 -2 27
0 27 5 0 4 -24 51 -53 103 -28 53 -58 108 -66 123 -8 15 -17 27 -21 27 -3 0
-16 -17 -27 -37z"/>
<path d="M5678 6228 c-25 -18 -64 -48 -87 -66 l-40 -33 -3 28 c-4 34 -33 43
-43 14 -3 -11 -31 -45 -61 -74 l-55 -54 -6 -74 -6 -74 -104 -75 c-58 -41 -119
-83 -136 -94 -18 -10 -86 -50 -152 -89 -68 -40 -148 -98 -186 -133 -56 -52
-78 -66 -135 -83 -38 -11 -96 -39 -129 -61 -94 -64 -162 -95 -270 -125 -55
-15 -122 -36 -150 -46 -27 -10 -51 -19 -52 -19 -1 0 -5 21 -9 48 -4 26 -13 64
-20 84 -7 21 -18 83 -24 139 -19 175 -60 271 -149 351 -59 54 -104 68 -208 68
-94 0 -160 -27 -216 -89 -88 -97 -103 -156 -114 -428 -3 -95 -10 -173 -14
-173 -18 0 -218 53 -289 76 -41 13 -91 34 -110 46 -139 87 -201 118 -238 118
-10 0 -61 34 -113 75 -51 42 -119 87 -149 102 -236 110 -540 286 -540 312 0
38 -49 118 -95 155 -26 22 -54 55 -62 73 -17 41 -37 38 -41 -5 -2 -18 -6 -32
-9 -32 -3 0 -41 20 -83 44 -94 54 -127 65 -136 42 -4 -11 -16 -15 -33 -14 -25
3 -26 1 -23 -42 2 -28 11 -53 24 -67 14 -15 18 -28 13 -44 -6 -18 8 -36 89
-116 123 -119 174 -153 237 -153 41 0 53 -5 94 -42 87 -78 99 -88 195 -162 52
-40 190 -134 305 -207 196 -126 283 -188 477 -345 50 -40 103 -72 147 -89 89
-34 125 -72 141 -152 7 -32 25 -114 41 -183 15 -69 32 -152 38 -186 5 -33 16
-76 24 -95 8 -19 17 -57 21 -84 4 -28 20 -103 36 -168 38 -154 42 -302 11
-389 -12 -32 -21 -75 -21 -97 0 -22 -4 -51 -10 -65 -10 -26 -26 -480 -22 -626
1 -47 7 -121 13 -165 5 -44 14 -170 19 -280 8 -177 13 -218 45 -350 33 -138
37 -168 45 -375 5 -124 16 -290 25 -370 9 -80 20 -215 25 -300 5 -85 14 -191
20 -235 7 -44 13 -162 14 -263 2 -166 4 -185 23 -210 42 -57 144 -62 244 -11
l56 28 6 458 c4 252 8 661 9 908 l2 450 7 -320 c3 -176 7 -518 8 -760 2 -456
10 -651 32 -698 19 -41 117 -87 188 -87 67 0 117 26 127 66 4 15 1 85 -6 155
-14 137 -10 266 15 499 39 356 41 484 19 895 -5 89 0 159 25 360 17 138 35
308 41 378 20 238 12 864 -12 977 -5 25 -25 80 -44 122 -21 46 -39 108 -46
155 -10 69 -9 90 11 188 31 153 77 373 101 480 11 50 26 124 34 166 24 125 33
140 117 184 113 59 171 98 241 163 97 92 221 190 358 287 188 132 274 202 390
319 82 83 116 110 160 128 81 32 112 61 195 180 75 106 86 132 63 141 -10 3
-8 9 4 24 13 14 17 33 15 64 -3 37 -6 44 -25 44 -11 0 -24 4 -28 8 -14 14 -40
6 -86 -25z"/>
</g>
</svg>
